<svg fill="#000000" xmlns="http://www.w3.org/2000/svg"  viewBox="0 0 100 100" width="100px" height="100px"><path d="M 51 9 C 50.610429 9 50.270578 9.0281314 49.970703 9.0371094 A 1.0004289 1.0004289 0 1 0 50.029297 11.037109 C 50.397426 11.026089 50.717571 11 51 11 C 58.566322 11 65.587621 13.274529 71.447266 17.169922 A 1.0001 1.0001 0 1 0 72.552734 15.505859 C 66.378379 11.401252 58.967678 9 51 9 z M 34.820312 13 C 33.279725 13 31.73106 13.58785 30.556641 14.753906 C 29.403891 15.899616 28.81976 17.404974 28.798828 18.916016 C 27.834315 18.329951 26.741609 18.045581 25.664062 18.037109 C 24.121724 18.025299 22.540127 18.568665 21.34375 19.757812 C 19.334131 21.755135 19.052188 24.841909 20.488281 27.150391 C 18.978 27.175426 17.47412 27.754966 16.326172 28.896484 C 13.979252 31.23026 13.977915 35.052803 16.326172 37.386719 L 17.753906 38.804688 C 16.305233 38.871617 14.871562 39.406095 13.769531 40.501953 C 11.421395 42.83575 11.421395 46.658391 13.769531 48.992188 L 49.820312 84.78125 A 1.0001 1.0001 0 0 0 49.84375 84.804688 L 49.871094 84.830078 L 49.871094 84.828125 C 51.322996 86.176854 53.315922 87 55.5 87 C 57.645307 87 59.683974 86.287859 61.164062 84.933594 L 60.869141 85.212891 L 66.289062 90.703125 A 1.0001 1.0001 0 1 0 67.710938 89.296875 L 61.603516 83.109375 A 1.0001 1.0001 0 0 0 61.599609 83.107422 L 69.853516 74.853516 A 0.50005 0.50005 0 0 0 69.490234 73.996094 A 0.50005 0.50005 0 0 0 69.146484 74.146484 L 60.242188 83.052734 L 60.222656 83.070312 A 1.0001 1.0001 0 0 0 60.203125 83.087891 L 59.810547 83.458984 C 58.752858 84.425824 57.198075 85 55.5 85 C 53.818078 85 52.312522 84.366597 51.232422 83.363281 A 1.0001 1.0001 0 0 0 51.230469 83.361328 L 51.216797 83.349609 L 15.179688 47.574219 C 13.597824 46.002015 13.597824 43.494079 15.179688 41.921875 C 16.760264 40.35015 19.303089 40.349857 20.884766 41.921875 A 1.0001 1.0001 0 0 0 20.957031 41.988281 L 34.765625 55.708984 A 1.0001 1.0001 0 1 0 36.175781 54.291016 L 17.736328 35.966797 C 16.154585 34.394713 16.155248 31.886678 17.736328 30.314453 C 19.312557 28.747053 21.845149 28.74367 23.427734 30.302734 L 40.943359 47.708984 A 1.0001 1.0001 0 1 0 42.353516 46.291016 L 24.908203 28.955078 A 1.0001 1.0001 0 0 0 24.851562 28.896484 C 24.837684 28.88269 24.822575 28.871053 24.808594 28.857422 L 22.751953 26.814453 C 21.174443 25.247401 21.176056 22.743929 22.753906 21.175781 C 23.543529 20.390929 24.578777 20.028919 25.648438 20.037109 C 26.691406 20.045309 27.692781 20.402621 28.460938 21.166016 L 30.552734 23.238281 C 30.554397 23.239938 30.554976 23.242486 30.556641 23.244141 A 1.0001 1.0001 0 0 0 30.558594 23.246094 C 30.69442 23.380645 42.033068 34.681974 48.080078 40.708984 A 1.0005858 1.0005858 0 0 0 49.492188 39.291016 C 43.600784 33.419099 33.2329 23.085942 32.414062 22.271484 A 1.0001 1.0001 0 0 0 32.357422 22.212891 L 31.964844 21.824219 C 31.964844 21.824219 31.962891 21.822266 31.962891 21.822266 C 30.385038 20.249811 30.386224 17.744702 31.966797 16.173828 C 32.758284 15.387837 33.784901 15 34.820312 15 C 35.855725 15 36.882247 15.387884 37.673828 16.173828 C 39.626601 18.114676 68.292969 46.708984 68.292969 46.708984 A 1.0001 1.0001 0 0 0 69.990234 46.140625 C 69.990234 46.140625 71.132388 38.132956 72.478516 31.583984 C 73.042762 28.844163 73.885854 28.136504 74.837891 27.230469 C 76.308158 25.831344 79.159068 25.576551 80.560547 26.910156 C 80.3661 26.725619 80.615357 27.084707 80.685547 27.447266 C 80.755977 27.811076 80.788613 28.17982 80.798828 28.298828 C 81.231975 33.321913 82.505748 43.933044 82.691406 48.214844 C 82.786996 50.43377 82.997082 52.554087 82.998047 54.5 C 82.998995 57.817572 82.148541 60.130575 80.242188 62.347656 A 1.0001 1.0001 0 0 0 80.292969 63.707031 L 86.292969 69.707031 A 1.0001 1.0001 0 1 0 87.707031 68.292969 L 82.242188 62.828125 C 84.005746 60.470396 84.998994 57.816543 84.998047 54.5 C 84.997047 52.413913 84.781862 50.27398 84.689453 48.128906 A 1.0001 1.0001 0 0 0 84.689453 48.126953 C 84.493111 43.598753 83.217822 33.053868 82.792969 28.126953 C 82.783169 28.012961 82.746209 27.561346 82.650391 27.066406 C 82.554571 26.571466 82.544674 26.037904 81.939453 25.460938 C 79.582932 23.218543 75.708717 23.642328 73.458984 25.783203 C 72.507021 26.689168 71.161285 28.063508 70.519531 31.179688 C 69.333386 36.950336 68.587349 42.233486 68.339844 43.927734 C 66.001652 41.595637 40.970989 16.631328 39.082031 14.753906 C 37.907612 13.58785 36.3609 13 34.820312 13 z M 52.964844 16.097656 A 1.0001 1.0001 0 0 0 52.935547 18.095703 C 57.482944 18.387054 61.742422 19.692357 65.515625 21.783203 A 1.0001 1.0001 0 1 0 66.484375 20.035156 C 62.461581 17.806002 57.913056 16.410258 53.064453 16.099609 A 1.0001 1.0001 0 0 0 52.964844 16.097656 z M 43.351562 24.857422 A 0.50005 0.50005 0 0 0 43.005859 25.007812 L 40.871094 27.130859 A 0.50005 0.50005 0 1 0 41.576172 27.839844 L 43.710938 25.716797 A 0.50005 0.50005 0 0 0 43.351562 24.857422 z M 34.8125 30.515625 A 0.50005 0.50005 0 0 0 34.466797 30.666016 L 32.332031 32.787109 A 0.50005 0.50005 0 1 0 33.037109 33.496094 L 35.171875 31.375 A 0.50005 0.50005 0 0 0 34.8125 30.515625 z M 29.119141 39 A 0.50005 0.50005 0 0 0 28.775391 39.150391 L 26.640625 41.271484 A 0.50005 0.50005 0 1 0 27.345703 41.980469 L 29.480469 39.859375 A 0.50005 0.50005 0 0 0 29.119141 39 z M 56.490234 45.996094 A 0.50005 0.50005 0 0 0 56.146484 46.146484 L 40.146484 62.146484 A 0.50005 0.50005 0 1 0 40.853516 62.853516 L 56.853516 46.853516 A 0.50005 0.50005 0 0 0 56.490234 45.996094 z M 25.138672 49.191406 A 0.50005 0.50005 0 0 0 24.794922 49.341797 L 22.660156 51.462891 A 0.50005 0.50005 0 1 0 23.365234 52.171875 L 25.5 50.050781 A 0.50005 0.50005 0 0 0 25.138672 49.191406 z M 58.490234 51.996094 A 0.50005 0.50005 0 0 0 58.146484 52.146484 L 50.146484 60.146484 A 0.50005 0.50005 0 1 0 50.853516 60.853516 L 58.853516 52.853516 A 0.50005 0.50005 0 0 0 58.490234 51.996094 z M 48.490234 61.996094 A 0.50005 0.50005 0 0 0 48.146484 62.146484 L 44.146484 66.146484 A 0.50005 0.50005 0 1 0 44.853516 66.853516 L 48.853516 62.853516 A 0.50005 0.50005 0 0 0 48.490234 61.996094 z M 61.492188 65.001953 C 57.984192 65.050293 53.280568 66.146492 48.193359 70.105469 A 0.50005 0.50005 0 1 0 48.806641 70.894531 C 53.729432 67.063508 58.193808 66.047617 61.507812 66.001953 C 65.094026 65.952303 67.292969 66.955078 67.292969 66.955078 A 0.50005 0.50005 0 1 0 67.707031 66.044922 C 67.707031 66.044922 65.273975 64.949599 61.492188 65.001953 z M 20.818359 65.988281 A 1.0001 1.0001 0 0 0 19.917969 67.453125 C 22.556482 72.642373 26.570073 76.984945 31.46875 80.060547 A 1.000374 1.000374 0 1 0 32.53125 78.365234 C 27.933927 75.478836 24.172659 71.407627 21.701172 66.546875 A 1.0001 1.0001 0 0 0 20.818359 65.988281 z M 13.943359 67.988281 A 1.0001 1.0001 0 0 0 13.09375 69.421875 C 16.573089 76.900915 22.339093 83.084478 29.513672 87.076172 A 1.0001 1.0001 0 1 0 30.486328 85.330078 C 23.680907 81.543772 18.206911 75.673085 14.90625 68.578125 A 1.0001 1.0001 0 0 0 13.943359 67.988281 z M 73.490234 69.996094 A 0.50005 0.50005 0 0 0 73.146484 70.146484 L 71.146484 72.146484 A 0.50005 0.50005 0 1 0 71.853516 72.853516 L 73.853516 70.853516 A 0.50005 0.50005 0 0 0 73.490234 69.996094 z"/></svg>